Coordinates
version=1
nRows=13
nColumns=38
inDegrees=no

Units are S.I. units (second, meters, Newtons, ...)
If the header above contains a line with 'inDegrees', this indicates whether rotational values are in degrees (yes) or radians (no).

endheader
time	pelvis_tilt	pelvis_list	pelvis_rotation	pelvis_tx	pelvis_ty	pelvis_tz	hip_flexion_r	hip_adduction_r	hip_rotation_r	knee_angle_r	ankle_angle_r	subtalar_angle_r	mtp_angle_r	hip_flexion_l	hip_adduction_l	hip_rotation_l	knee_angle_l	ankle_angle_l	subtalar_angle_l	mtp_angle_l	lumbar_extension	lumbar_bending	lumbar_rotation	arm_flex_r	arm_add_r	arm_rot_r	elbow_flex_r	pro_sup_r	wrist_flex_r	wrist_dev_r	arm_flex_l	arm_add_l	arm_rot_l	elbow_flex_l	pro_sup_l	wrist_flex_l	wrist_dev_l
20	-3.09411	1.41886	-1.80696	0.757642	-1.40254	0.938827	-0.490294	0.130856	0.138995	0	-0.698132	0	0	0.0873631	-0.106613	-0.307957	0.243347	-0.18993	0	0	-0.381994	-0.0569178	0.225087	-0.027749	-0.46278	0.0038156	2.41864	1.15401	0	0	-0.139036	-0.318083	-0.222103	2.11609	0.819354	0	0
20.01	-2.9705	1.41209	-1.92662	0.75783	-1.40448	0.941105	-0.478838	0.106956	0.0766262	2.31136e-07	-0.698132	0	0	0.103387	-0.0914632	-0.36251	0.26437	-0.214664	0	0	-0.39226	-0.0802091	0.215921	-0.0262055	-0.453264	0.0037011	2.41506	1.15401	0	0	-0.134603	-0.321765	-0.225079	2.11858	0.819332	0	0
20.02	-3.00729	1.43251	-1.89566	0.759294	-1.40392	0.937784	-0.284723	0.0769746	-0.298052	0.31315	-0.698132	0	0	0.118952	-0.110801	-0.368166	0.259482	-0.203887	0	0	-0.371525	-0.0716123	0.223936	-0.0353721	-0.453957	0.00441032	2.42048	1.15401	0	0	-0.148174	-0.32164	-0.232461	2.12946	0.814024	0	0
20.03	3.13738	1.41469	-1.77558	0.762773	-1.39987	0.938781	-0.442304	0.126327	-0.0179434	0.0801828	-0.698132	0	0	0.117427	-0.132972	-0.315629	0.337988	-0.151375	0	0	-0.386768	-0.0626516	0.260251	0.0392605	-0.476126	-0.717057	2.45749	1.15401	0	0	-0.148896	-0.325398	-0.216704	2.13251	0.818405	0	0
20.04	-2.82772	1.44454	-2.12993	0.765268	-1.39894	0.929892	-0.185448	-0.0268382	-0.698132	0.196779	-0.698132	0	0	0.154709	-0.105805	-0.32458	0.338087	-0.132365	0	0	-0.327449	-0.104295	0.27544	-0.0717266	-0.455839	-0.00784596	2.44764	1.15401	0	0	-0.177567	-0.329185	-0.233553	2.14887	0.818468	0	0
20.05	-2.53986	1.4536	-2.37823	0.756919	-1.40473	0.928822	-0.0529295	-0.0956966	-0.514879	0.620148	-0.698132	0	0	0.178818	-0.0661468	-0.390771	0.273758	-0.192565	0	0	-0.323085	-0.107435	0.228388	-0.0570432	-0.454977	-0.00774338	2.46209	1.15401	0	0	-0.170204	-0.318959	-0.242868	2.14574	0.81434	0	0
20.06	-3.08099	1.44815	-1.85818	0.763968	-1.40123	0.931459	-0.25171	0.0482709	-0.698132	0.0843934	-0.698132	0	0	0.121758	-0.127801	-0.327289	0.267744	-0.160061	0	0	-0.355127	-0.063796	0.268522	-0.0423689	-0.455154	-0.360257	2.54644	1.15401	0	0	-0.173501	-0.321268	-0.238381	2.15168	0.796016	0	0
20.07	-2.59941	1.44186	-2.32727	0.761174	-1.40311	0.929514	-0.232955	-0.0252536	-0.472945	0.580814	-0.1234	0	0	0.185358	-0.0694441	-0.319012	0.309302	-0.202189	0	0	-0.336143	-0.11784	0.239297	-0.0689481	-0.438727	-0.0443	2.48281	1.15401	0	0	-0.175558	-0.329698	-0.247124	2.15534	0.796223	0	0
20.08	-3.05806	1.40602	-1.89251	0.768582	-1.40195	0.938548	-0.27289	0.0231541	-0.698132	0.123666	-0.698132	0	0	0.0771453	-0.119032	-0.435916	0.268228	-0.191336	0	0	-0.404047	-0.105464	0.279284	-0.022543	-0.414302	-0.490215	2.52432	1.15401	0	0	-0.165522	-0.330767	-0.233062	2.17075	0.817496	0	0
20.09	3.11487	1.37811	-1.7863	0.769482	-1.40131	0.940992	-0.34083	0.0462783	-0.698132	0.083244	-0.698132	0	0	0.0466363	-0.129411	-0.427996	0.284269	-0.173396	0	0	-0.440251	-0.0842784	0.277692	-0.0420361	-0.448776	-0.326533	2.57993	1.15401	0	0	-0.172618	-0.328303	-0.250809	2.17137	0.795761	0	0
20.1	2.94299	1.35589	-1.5946	0.762141	-1.40295	0.947984	-0.523599	0.158022	0.0425499	0.0292428	-0.698132	0	0	0.0232862	-0.151966	-0.388173	0.270092	-0.195805	0	0	-0.479567	-0.0304649	0.266557	-0.0562794	-0.472335	-0.0203438	2.48837	1.15401	0	0	-0.169922	-0.297687	-0.248445	2.152	0.797253	0	0
20.11	2.9895	1.39319	-1.66465	0.768363	-1.40046	0.939108	-0.345004	0.0880103	-0.698132	0.0329522	-0.698132	0	0	0.0558015	-0.155723	-0.397004	0.279164	-0.163948	0	0	-0.428502	-0.0545815	0.293249	-0.0575133	-0.462426	-0.32084	2.53512	1.15401	0	0	-0.177525	-0.314726	-0.245691	2.16731	0.795964	0	0
20.12	-3.0006	1.37593	-1.94666	0.766287	-1.40131	0.94062	-0.273744	-0.0236934	-0.698132	0.200401	-0.698132	0	0	0.0641181	-0.0961134	-0.469142	0.293458	-0.192909	0	0	-0.440277	-0.111539	0.259525	-0.0684097	-0.43657	-0.0880854	2.50724	1.15401	0	0	-0.175632	-0.324884	-0.252141	2.17256	0.796533	0	0
